<?xml version="1.0" encoding="utf-8"?>
<!-- Generator: Adobe Illustrator 20.1.0, SVG Export Plug-In . SVG Version: 6.00 Build 0)  -->
<!DOCTYPE svg PUBLIC "-//W3C//DTD SVG 1.1//EN" "http://www.w3.org/Graphics/SVG/1.1/DTD/svg11.dtd">
<svg version="1.1" id="Layer_1" xmlns="http://www.w3.org/2000/svg" xmlns:xlink="http://www.w3.org/1999/xlink" x="0px" y="0px"
	 viewBox="0 0 386.9 242.7" enable-background="new 0 0 386.9 242.7" xml:space="preserve">
<path fill="#FFF" d="M353.8,1.2c-1.5,17.8-12.1,29.3-28.7,31.1v32h20.7v177.3h41.1V1.2H353.8z M260.8,42.3c0-6.8,1.5-10.4,6.2-10.4
	c5.3,0,6.8,3.6,6.8,10.4v158.1c0,6.8-1.2,10.1-6.2,10.1s-6.8-3-6.8-10.1V42.3z M219.9,48v146.8c0,41.1,5.9,48,48,48
	c41.7,0,47.1-7.7,47.1-48V48c0-41.1-5.9-48-47.7-48C224.7,0,219.9,7.7,219.9,48 M167.9,48c0-42.3-8.3-48-48-48
	C76.7,0,72.5,7.7,72.5,48v36.1h40.8V42.3c0-6.8,1.5-10.4,6.2-10.4c5.3,0,6.5,3.6,6.5,10.4v34c0,12.7-3,18.9-5.9,25.5L73.1,209v32.6
	h94.7V209h-49.7l42.6-97.4c4.7-11,7.1-20.4,7.1-32.9V48z M28.7,1.2C27.2,18.9,16.6,30.5,0,32.3v32h20.7v177.3h41.1V1.2H28.7z
	 M193.9,213.1c8.1,0,14.3,6.2,14.3,14.3c0,8.1-6.2,14.6-14.3,14.6c-8.1,0-14.6-6.5-14.6-14.6C179.2,219.3,185.8,213.1,193.9,213.1
	 M193.9,84.6c8.1,0,14.3,6.2,14.3,14.3s-6.2,14.6-14.3,14.6c-8.1,0-14.6-6.5-14.6-14.6S185.8,84.6,193.9,84.6"/>
</svg>
